<svg width="1138" height="1125" viewBox="0 0 1138 1125" fill="none" xmlns="http://www.w3.org/2000/svg">
<g clip-path="url(#clip0_2_265)">
<rect width="1138" height="1125" fill="white"/>
<g clip-path="url(#clip1_2_265)">
<path d="M32.8491 517.567C32.8491 522.261 29.0435 526.067 24.3491 526.067C19.6547 526.067 15.8491 522.261 15.8491 517.567C15.8491 512.873 19.6547 509.067 24.3491 509.067C29.0435 509.067 32.8491 512.873 32.8491 517.567Z" fill="url(#paint0_linear_2_265)"/>
<path d="M131.844 616.562C131.844 621.256 128.038 625.062 123.344 625.062C118.65 625.062 114.844 621.256 114.844 616.562C114.844 611.868 118.65 608.062 123.344 608.062C128.038 608.062 131.844 611.868 131.844 616.562Z" fill="url(#paint1_linear_2_265)"/>
<path d="M230.839 715.557C230.839 720.251 227.033 724.057 222.339 724.057C217.645 724.057 213.839 720.251 213.839 715.557C213.839 710.863 217.645 707.057 222.339 707.057C227.033 707.057 230.839 710.863 230.839 715.557Z" fill="url(#paint2_linear_2_265)"/>
<path d="M329.834 814.551C329.834 819.245 326.028 823.051 321.334 823.051C316.64 823.051 312.834 819.245 312.834 814.551C312.834 809.857 316.64 806.051 321.334 806.051C326.028 806.051 329.834 809.857 329.834 814.551Z" fill="url(#paint3_linear_2_265)"/>
<path d="M428.829 913.546C428.829 918.24 425.023 922.046 420.329 922.046C415.635 922.046 411.829 918.24 411.829 913.546C411.829 908.852 415.635 905.046 420.329 905.046C425.023 905.046 428.829 908.852 428.829 913.546Z" fill="url(#paint4_linear_2_265)"/>
<path d="M527.824 1012.54C527.824 1017.23 524.018 1021.04 519.324 1021.04C514.63 1021.04 510.824 1017.23 510.824 1012.54C510.824 1007.85 514.63 1004.04 519.324 1004.04C524.018 1004.04 527.824 1007.85 527.824 1012.54Z" fill="url(#paint5_linear_2_265)"/>
<path d="M626.819 1111.54C626.819 1116.23 623.013 1120.04 618.319 1120.04C613.625 1120.04 609.819 1116.23 609.819 1111.54C609.819 1106.85 613.625 1103.04 618.319 1103.04C623.013 1103.04 626.819 1106.85 626.819 1111.54Z" fill="url(#paint6_linear_2_265)"/>
<path d="M89.4175 460.998C89.4175 465.692 85.6119 469.498 80.9175 469.498C76.2231 469.498 72.4175 465.692 72.4175 460.998C72.4175 456.304 76.2231 452.498 80.9175 452.498C85.6119 452.498 89.4175 456.304 89.4175 460.998Z" fill="url(#paint7_linear_2_265)"/>
<path d="M188.413 559.993C188.413 564.687 184.607 568.493 179.913 568.493C175.219 568.493 171.413 564.687 171.413 559.993C171.413 555.299 175.219 551.493 179.913 551.493C184.607 551.493 188.413 555.299 188.413 559.993Z" fill="url(#paint8_linear_2_265)"/>
<path d="M287.407 658.988C287.407 663.682 283.601 667.488 278.907 667.488C274.213 667.488 270.407 663.682 270.407 658.988C270.407 654.294 274.213 650.488 278.907 650.488C283.601 650.488 287.407 654.294 287.407 658.988Z" fill="url(#paint9_linear_2_265)"/>
<path d="M386.402 757.983C386.402 762.677 382.596 766.483 377.902 766.483C373.208 766.483 369.402 762.677 369.402 757.983C369.402 753.289 373.208 749.483 377.902 749.483C382.596 749.483 386.402 753.289 386.402 757.983Z" fill="url(#paint10_linear_2_265)"/>
<path d="M485.397 856.978C485.397 861.672 481.591 865.478 476.897 865.478C472.203 865.478 468.397 861.672 468.397 856.978C468.397 852.284 472.203 848.478 476.897 848.478C481.591 848.478 485.397 852.284 485.397 856.978Z" fill="url(#paint11_linear_2_265)"/>
<path d="M584.392 955.973C584.392 960.663 580.586 964.473 575.892 964.473C571.198 964.473 567.392 960.663 567.392 955.973C567.392 951.283 571.198 947.473 575.892 947.473C580.586 947.473 584.392 951.283 584.392 955.973Z" fill="url(#paint12_linear_2_265)"/>
<path d="M683.387 1054.97C683.387 1059.66 679.581 1063.47 674.887 1063.47C670.193 1063.47 666.387 1059.66 666.387 1054.97C666.387 1050.28 670.193 1046.47 674.887 1046.47C679.581 1046.47 683.387 1050.28 683.387 1054.97Z" fill="url(#paint13_linear_2_265)"/>
<path d="M145.986 404.43C145.986 409.124 142.18 412.93 137.486 412.93C132.792 412.93 128.986 409.124 128.986 404.43C128.986 399.736 132.792 395.93 137.486 395.93C142.18 395.93 145.986 399.736 145.986 404.43Z" fill="url(#paint14_linear_2_265)"/>
<path d="M244.981 503.424C244.981 508.118 241.175 511.924 236.481 511.924C231.787 511.924 227.981 508.118 227.981 503.424C227.981 498.73 231.787 494.924 236.481 494.924C241.175 494.924 244.981 498.73 244.981 503.424Z" fill="url(#paint15_linear_2_265)"/>
<path d="M343.976 602.419C343.976 607.113 340.17 610.919 335.476 610.919C330.782 610.919 326.976 607.113 326.976 602.419C326.976 597.725 330.782 593.919 335.476 593.919C340.17 593.919 343.976 597.725 343.976 602.419Z" fill="url(#paint16_linear_2_265)"/>
<path d="M449.154 701.4C449.154 709.683 442.438 716.4 434.154 716.4C425.871 716.4 419.154 709.683 419.154 701.4C419.154 693.116 425.871 686.4 434.154 686.4C442.438 686.4 449.154 693.116 449.154 701.4Z" fill="url(#paint17_linear_2_265)"/>
<path d="M541.966 800.409C541.966 805.103 538.16 808.909 533.466 808.909C528.772 808.909 524.966 805.103 524.966 800.409C524.966 795.715 528.772 791.909 533.466 791.909C538.16 791.909 541.966 795.715 541.966 800.409Z" fill="url(#paint18_linear_2_265)"/>
<path d="M640.96 899.404C640.96 904.098 637.154 907.904 632.46 907.904C627.766 907.904 623.96 904.098 623.96 899.404C623.96 894.71 627.766 890.904 632.46 890.904C637.154 890.904 640.96 894.71 640.96 899.404Z" fill="url(#paint19_linear_2_265)"/>
<path d="M739.956 998.399C739.956 1003.09 736.15 1006.9 731.456 1006.9C726.762 1006.9 722.956 1003.09 722.956 998.399C722.956 993.709 726.762 989.899 731.456 989.899C736.15 989.899 739.956 993.709 739.956 998.399Z" fill="url(#paint20_linear_2_265)"/>
<path d="M202.555 347.861C202.555 352.555 198.749 356.361 194.055 356.361C189.361 356.361 185.555 352.555 185.555 347.861C185.555 343.167 189.361 339.361 194.055 339.361C198.749 339.361 202.555 343.167 202.555 347.861Z" fill="url(#paint21_linear_2_265)"/>
<path d="M301.55 446.856C301.55 451.55 297.744 455.356 293.05 455.356C288.356 455.356 284.55 451.55 284.55 446.856C284.55 442.162 288.356 438.356 293.05 438.356C297.744 438.356 301.55 442.162 301.55 446.856Z" fill="url(#paint22_linear_2_265)"/>
<path d="M406.729 545.836C406.729 554.12 400.012 560.836 391.729 560.836C383.445 560.836 376.729 554.12 376.729 545.836C376.729 537.553 383.445 530.836 391.729 530.836C400.012 530.836 406.729 537.553 406.729 545.836Z" fill="url(#paint23_linear_2_265)"/>
<path d="M504.651 643.458C504.651 651.742 497.936 658.458 489.651 658.458C481.367 658.458 474.651 651.742 474.651 643.458C474.651 635.173 481.367 628.458 489.651 628.458C497.936 628.458 504.651 635.173 504.651 643.458Z" fill="url(#paint24_linear_2_265)"/>
<path d="M604.718 743.826C604.718 752.11 598.002 758.826 589.718 758.826C581.435 758.826 574.718 752.11 574.718 743.826C574.718 735.542 581.435 728.826 589.718 728.826C598.002 728.826 604.718 735.542 604.718 743.826Z" fill="url(#paint25_linear_2_265)"/>
<path d="M697.529 842.836C697.529 847.53 693.723 851.336 689.029 851.336C684.335 851.336 680.529 847.53 680.529 842.836C680.529 838.142 684.335 834.336 689.029 834.336C693.723 834.336 697.529 838.142 697.529 842.836Z" fill="url(#paint26_linear_2_265)"/>
<path d="M796.524 941.831C796.524 946.521 792.718 950.331 788.024 950.331C783.33 950.331 779.524 946.521 779.524 941.831C779.524 937.137 783.33 933.331 788.024 933.331C792.718 933.331 796.524 937.137 796.524 941.831Z" fill="url(#paint27_linear_2_265)"/>
<path d="M259.123 291.292C259.123 295.986 255.317 299.792 250.623 299.792C245.929 299.792 242.123 295.986 242.123 291.292C242.123 286.598 245.929 282.792 250.623 282.792C255.317 282.792 259.123 286.598 259.123 291.292Z" fill="url(#paint28_linear_2_265)"/>
<path d="M358.118 390.287C358.118 394.981 354.312 398.787 349.618 398.787C344.924 398.787 341.118 394.981 341.118 390.287C341.118 385.593 344.924 381.787 349.618 381.787C354.312 381.787 358.118 385.593 358.118 390.287Z" fill="url(#paint29_linear_2_265)"/>
<path d="M463.297 489.268C463.297 497.552 456.581 504.268 448.297 504.268C440.012 504.268 433.297 497.552 433.297 489.268C433.297 480.983 440.012 474.268 448.297 474.268C456.581 474.268 463.297 480.983 463.297 489.268Z" fill="url(#paint30_linear_2_265)"/>
<path d="M575.248 588.263C575.248 603.451 562.936 615.763 547.748 615.763C532.559 615.763 520.248 603.451 520.248 588.263C520.248 573.074 532.559 560.763 547.748 560.763C562.936 560.763 575.248 573.074 575.248 588.263Z" fill="url(#paint31_linear_2_265)"/>
<path d="M661.287 687.258C661.287 695.542 654.571 702.258 646.287 702.258C638.002 702.258 631.287 695.542 631.287 687.258C631.287 678.973 638.002 672.258 646.287 672.258C654.571 672.258 661.287 678.973 661.287 687.258Z" fill="url(#paint32_linear_2_265)"/>
<path d="M754.098 786.267C754.098 790.961 750.292 794.767 745.598 794.767C740.903 794.767 737.098 790.961 737.098 786.267C737.098 781.573 740.903 777.767 745.598 777.767C750.292 777.767 754.098 781.573 754.098 786.267Z" fill="url(#paint33_linear_2_265)"/>
<path d="M853.093 885.262C853.093 889.956 849.287 893.762 844.593 893.762C839.899 893.762 836.093 889.956 836.093 885.262C836.093 880.568 839.899 876.762 844.593 876.762C849.287 876.762 853.093 880.568 853.093 885.262Z" fill="url(#paint34_linear_2_265)"/>
<path d="M315.692 234.724C315.692 239.418 311.886 243.224 307.192 243.224C302.498 243.224 298.692 239.418 298.692 234.724C298.692 230.03 302.498 226.224 307.192 226.224C311.886 226.224 315.692 230.03 315.692 234.724Z" fill="url(#paint35_linear_2_265)"/>
<path d="M420.871 333.704C420.871 341.988 414.154 348.704 405.871 348.704C397.587 348.704 390.871 341.988 390.871 333.704C390.871 325.421 397.587 318.704 405.871 318.704C414.154 318.704 420.871 325.421 420.871 333.704Z" fill="url(#paint36_linear_2_265)"/>
<path d="M519.866 432.699C519.866 440.983 513.15 447.699 504.866 447.699C496.582 447.699 489.866 440.983 489.866 432.699C489.866 424.415 496.582 417.699 504.866 417.699C513.15 417.699 519.866 424.415 519.866 432.699Z" fill="url(#paint37_linear_2_265)"/>
<path d="M631.816 531.694C631.816 546.882 619.504 559.194 604.316 559.194C589.128 559.194 576.816 546.882 576.816 531.694C576.816 516.506 589.128 504.194 604.316 504.194C619.504 504.194 631.816 516.506 631.816 531.694Z" fill="url(#paint38_linear_2_265)"/>
<path d="M717.855 630.689C717.855 638.973 711.14 645.689 702.855 645.689C694.571 645.689 687.855 638.973 687.855 630.689C687.855 622.405 694.571 615.689 702.855 615.689C711.14 615.689 717.855 622.405 717.855 630.689Z" fill="url(#paint39_linear_2_265)"/>
<path d="M816.851 729.684C816.851 737.968 810.135 744.684 801.851 744.684C793.566 744.684 786.851 737.968 786.851 729.684C786.851 721.4 793.566 714.684 801.851 714.684C810.135 714.684 816.851 721.4 816.851 729.684Z" fill="url(#paint40_linear_2_265)"/>
<path d="M909.662 828.694C909.662 833.388 905.856 837.194 901.162 837.194C896.468 837.194 892.662 833.388 892.662 828.694C892.662 824 896.468 820.194 901.162 820.194C905.856 820.194 909.662 824 909.662 828.694Z" fill="url(#paint41_linear_2_265)"/>
<path d="M378.444 178.141C378.444 186.425 371.728 193.141 363.444 193.141C355.16 193.141 348.444 186.425 348.444 178.141C348.444 169.857 355.16 163.141 363.444 163.141C371.728 163.141 378.444 169.857 378.444 178.141Z" fill="url(#paint42_linear_2_265)"/>
<path d="M477.439 277.136C477.439 285.42 470.723 292.136 462.439 292.136C454.155 292.136 447.439 285.42 447.439 277.136C447.439 268.851 454.155 262.136 462.439 262.136C470.723 262.136 477.439 268.851 477.439 277.136Z" fill="url(#paint43_linear_2_265)"/>
<path d="M589.39 376.131C589.39 391.318 577.078 403.631 561.89 403.631C546.702 403.631 534.39 391.318 534.39 376.131C534.39 360.943 546.702 348.631 561.89 348.631C577.078 348.631 589.39 360.943 589.39 376.131Z" fill="url(#paint44_linear_2_265)"/>
<path d="M688.385 475.125C688.385 490.313 676.073 502.625 660.885 502.625C645.697 502.625 633.385 490.313 633.385 475.125C633.385 459.938 645.697 447.625 660.885 447.625C676.073 447.625 688.385 459.938 688.385 475.125Z" fill="url(#paint45_linear_2_265)"/>
<path d="M787.379 574.12C787.379 589.308 775.067 601.62 759.879 601.62C744.692 601.62 732.379 589.308 732.379 574.12C732.379 558.933 744.692 546.62 759.879 546.62C775.067 546.62 787.379 558.933 787.379 574.12Z" fill="url(#paint46_linear_2_265)"/>
<path d="M873.419 673.115C873.419 681.4 866.703 688.115 858.419 688.115C850.135 688.115 843.419 681.4 843.419 673.115C843.419 664.831 850.135 658.115 858.419 658.115C866.703 658.115 873.419 664.831 873.419 673.115Z" fill="url(#paint47_linear_2_265)"/>
<path d="M972.414 772.11C972.414 780.395 965.698 787.11 957.414 787.11C949.129 787.11 942.414 780.395 942.414 772.11C942.414 763.826 949.129 757.11 957.414 757.11C965.698 757.11 972.414 763.826 972.414 772.11Z" fill="url(#paint48_linear_2_265)"/>
<path d="M428.829 121.587C428.829 126.281 425.023 130.087 420.329 130.087C415.635 130.087 411.829 126.281 411.829 121.587C411.829 116.893 415.635 113.087 420.329 113.087C425.023 113.087 428.829 116.893 428.829 121.587Z" fill="url(#paint49_linear_2_265)"/>
<path d="M527.824 220.582C527.824 225.276 524.018 229.082 519.324 229.082C514.629 229.082 510.824 225.276 510.824 220.582C510.824 215.887 514.629 212.082 519.324 212.082C524.018 212.082 527.824 215.887 527.824 220.582Z" fill="url(#paint50_linear_2_265)"/>
<path d="M633.002 319.562C633.002 327.846 626.287 334.562 618.002 334.562C609.718 334.562 603.002 327.846 603.002 319.562C603.002 311.277 609.718 304.562 618.002 304.562C626.287 304.562 633.002 311.277 633.002 319.562Z" fill="url(#paint51_linear_2_265)"/>
<path d="M731.997 418.557C731.997 426.841 725.281 433.557 716.997 433.557C708.713 433.557 701.997 426.841 701.997 418.557C701.997 410.273 708.713 403.557 716.997 403.557C725.281 403.557 731.997 410.273 731.997 418.557Z" fill="url(#paint52_linear_2_265)"/>
<path d="M830.992 517.552C830.992 525.836 824.276 532.552 815.992 532.552C807.708 532.552 800.992 525.836 800.992 517.552C800.992 509.268 807.708 502.552 815.992 502.552C824.276 502.552 830.992 509.268 830.992 517.552Z" fill="url(#paint53_linear_2_265)"/>
<path d="M923.803 616.562C923.803 621.256 919.998 625.062 915.303 625.062C910.609 625.062 906.803 621.256 906.803 616.562C906.803 611.867 910.609 608.062 915.303 608.062C919.998 608.062 923.803 611.867 923.803 616.562Z" fill="url(#paint54_linear_2_265)"/>
<path d="M1022.8 715.557C1022.8 720.251 1018.99 724.057 1014.3 724.057C1009.6 724.057 1005.8 720.251 1005.8 715.557C1005.8 710.862 1009.6 707.057 1014.3 707.057C1018.99 707.057 1022.8 710.862 1022.8 715.557Z" fill="url(#paint55_linear_2_265)"/>
<path d="M485.397 65.0183C485.397 69.7127 481.591 73.5183 476.897 73.5183C472.203 73.5183 468.397 69.7127 468.397 65.0183C468.397 60.3239 472.203 56.5183 476.897 56.5183C481.591 56.5183 485.397 60.3239 485.397 65.0183Z" fill="url(#paint56_linear_2_265)"/>
<path d="M584.393 164.013C584.393 168.707 580.587 172.513 575.893 172.513C571.199 172.513 567.393 168.707 567.393 164.013C567.393 159.319 571.199 155.513 575.893 155.513C580.587 155.513 584.393 159.319 584.393 164.013Z" fill="url(#paint57_linear_2_265)"/>
<path d="M683.387 263.008C683.387 267.702 679.581 271.508 674.887 271.508C670.193 271.508 666.387 267.702 666.387 263.008C666.387 258.314 670.193 254.508 674.887 254.508C679.581 254.508 683.387 258.314 683.387 263.008Z" fill="url(#paint58_linear_2_265)"/>
<path d="M782.382 362.003C782.382 366.697 778.576 370.503 773.882 370.503C769.188 370.503 765.382 366.697 765.382 362.003C765.382 357.309 769.188 353.503 773.882 353.503C778.576 353.503 782.382 357.309 782.382 362.003Z" fill="url(#paint59_linear_2_265)"/>
<path d="M881.377 460.998C881.377 465.692 877.571 469.498 872.877 469.498C868.183 469.498 864.377 465.692 864.377 460.998C864.377 456.304 868.183 452.498 872.877 452.498C877.571 452.498 881.377 456.304 881.377 460.998Z" fill="url(#paint60_linear_2_265)"/>
<path d="M980.372 559.993C980.372 564.687 976.562 568.493 971.872 568.493C967.182 568.493 963.372 564.687 963.372 559.993C963.372 555.299 967.182 551.493 971.872 551.493C976.562 551.493 980.372 555.299 980.372 559.993Z" fill="url(#paint61_linear_2_265)"/>
<path d="M1079.37 658.988C1079.37 663.682 1075.56 667.488 1070.87 667.488C1066.18 667.488 1062.37 663.682 1062.37 658.988C1062.37 654.294 1066.18 650.488 1070.87 650.488C1075.56 650.488 1079.37 654.294 1079.37 658.988Z" fill="url(#paint62_linear_2_265)"/>
<path d="M534.895 15.5208C534.895 20.2152 531.089 24.0208 526.395 24.0208C521.701 24.0208 517.895 20.2152 517.895 15.5208C517.895 10.8264 521.701 7.02081 526.395 7.02081C531.089 7.02081 534.895 10.8264 534.895 15.5208Z" fill="url(#paint63_linear_2_265)"/>
<path d="M633.89 114.516C633.89 119.21 630.084 123.016 625.39 123.016C620.696 123.016 616.89 119.21 616.89 114.516C616.89 109.821 620.696 106.016 625.39 106.016C630.084 106.016 633.89 109.821 633.89 114.516Z" fill="url(#paint64_linear_2_265)"/>
<path d="M732.885 213.511C732.885 218.205 729.079 222.011 724.385 222.011C719.691 222.011 715.885 218.205 715.885 213.511C715.885 208.817 719.691 205.011 724.385 205.011C729.079 205.011 732.885 208.817 732.885 213.511Z" fill="url(#paint65_linear_2_265)"/>
<path d="M831.88 312.506C831.88 317.2 828.074 321.006 823.38 321.006C818.686 321.006 814.88 317.2 814.88 312.506C814.88 307.812 818.686 304.006 823.38 304.006C828.074 304.006 831.88 307.812 831.88 312.506Z" fill="url(#paint66_linear_2_265)"/>
<path d="M930.875 411.501C930.875 416.195 927.069 420.001 922.375 420.001C917.681 420.001 913.875 416.195 913.875 411.501C913.875 406.807 917.681 403.001 922.375 403.001C927.069 403.001 930.875 406.807 930.875 411.501Z" fill="url(#paint67_linear_2_265)"/>
<path d="M1029.87 510.496C1029.87 515.19 1026.06 518.996 1021.37 518.996C1016.68 518.996 1012.87 515.19 1012.87 510.496C1012.87 505.802 1016.68 501.996 1021.37 501.996C1026.06 501.996 1029.87 505.802 1029.87 510.496Z" fill="url(#paint68_linear_2_265)"/>
<path d="M1128.86 609.491C1128.86 614.185 1125.05 617.991 1120.36 617.991C1115.67 617.991 1111.86 614.185 1111.86 609.491C1111.86 604.797 1115.67 600.991 1120.36 600.991C1125.05 600.991 1128.86 604.797 1128.86 609.491Z" fill="url(#paint69_linear_2_265)"/>
</g>
</g>
<defs>
<linearGradient id="paint0_linear_2_265" x1="630.849" y1="276.067" x2="464.849" y2="954.067" gradientUnits="userSpaceOnUse">
<stop stop-color="#C585F4"/>
<stop offset="0.463542" stop-color="#78C3F2"/>
<stop offset="1" stop-color="#536AD4"/>
</linearGradient>
<linearGradient id="paint1_linear_2_265" x1="633.844" y1="277.062" x2="467.844" y2="955.062" gradientUnits="userSpaceOnUse">
<stop stop-color="#C585F4"/>
<stop offset="0.463542" stop-color="#78C3F2"/>
<stop offset="1" stop-color="#536AD4"/>
</linearGradient>
<linearGradient id="paint2_linear_2_265" x1="636.839" y1="283.057" x2="470.839" y2="961.056" gradientUnits="userSpaceOnUse">
<stop stop-color="#C585F4"/>
<stop offset="0.463542" stop-color="#78C3F2"/>
<stop offset="1" stop-color="#536AD4"/>
</linearGradient>
<linearGradient id="paint3_linear_2_265" x1="639.834" y1="281.051" x2="473.834" y2="959.051" gradientUnits="userSpaceOnUse">
<stop stop-color="#C585F4"/>
<stop offset="0.463542" stop-color="#78C3F2"/>
<stop offset="1" stop-color="#536AD4"/>
</linearGradient>
<linearGradient id="paint4_linear_2_265" x1="642.829" y1="288.046" x2="476.829" y2="966.046" gradientUnits="userSpaceOnUse">
<stop stop-color="#C585F4"/>
<stop offset="0.463542" stop-color="#78C3F2"/>
<stop offset="1" stop-color="#536AD4"/>
</linearGradient>
<linearGradient id="paint5_linear_2_265" x1="648.824" y1="291.041" x2="482.824" y2="969.041" gradientUnits="userSpaceOnUse">
<stop stop-color="#C585F4"/>
<stop offset="0.463542" stop-color="#78C3F2"/>
<stop offset="1" stop-color="#536AD4"/>
</linearGradient>
<linearGradient id="paint6_linear_2_265" x1="651.819" y1="295.036" x2="485.819" y2="973.036" gradientUnits="userSpaceOnUse">
<stop stop-color="#C585F4"/>
<stop offset="0.463542" stop-color="#78C3F2"/>
<stop offset="1" stop-color="#536AD4"/>
</linearGradient>
<linearGradient id="paint7_linear_2_265" x1="631.417" y1="278.498" x2="465.417" y2="956.498" gradientUnits="userSpaceOnUse">
<stop stop-color="#C585F4"/>
<stop offset="0.463542" stop-color="#78C3F2"/>
<stop offset="1" stop-color="#536AD4"/>
</linearGradient>
<linearGradient id="paint8_linear_2_265" x1="634.413" y1="279.493" x2="468.413" y2="957.493" gradientUnits="userSpaceOnUse">
<stop stop-color="#C585F4"/>
<stop offset="0.463542" stop-color="#78C3F2"/>
<stop offset="1" stop-color="#536AD4"/>
</linearGradient>
<linearGradient id="paint9_linear_2_265" x1="637.407" y1="285.488" x2="471.407" y2="963.488" gradientUnits="userSpaceOnUse">
<stop stop-color="#C585F4"/>
<stop offset="0.463542" stop-color="#78C3F2"/>
<stop offset="1" stop-color="#536AD4"/>
</linearGradient>
<linearGradient id="paint10_linear_2_265" x1="640.402" y1="283.483" x2="474.402" y2="961.483" gradientUnits="userSpaceOnUse">
<stop stop-color="#C585F4"/>
<stop offset="0.463542" stop-color="#78C3F2"/>
<stop offset="1" stop-color="#536AD4"/>
</linearGradient>
<linearGradient id="paint11_linear_2_265" x1="643.397" y1="290.478" x2="477.397" y2="968.478" gradientUnits="userSpaceOnUse">
<stop stop-color="#C585F4"/>
<stop offset="0.463542" stop-color="#78C3F2"/>
<stop offset="1" stop-color="#536AD4"/>
</linearGradient>
<linearGradient id="paint12_linear_2_265" x1="649.392" y1="293.473" x2="483.392" y2="971.473" gradientUnits="userSpaceOnUse">
<stop stop-color="#C585F4"/>
<stop offset="0.463542" stop-color="#78C3F2"/>
<stop offset="1" stop-color="#536AD4"/>
</linearGradient>
<linearGradient id="paint13_linear_2_265" x1="653.387" y1="295.468" x2="487.387" y2="973.468" gradientUnits="userSpaceOnUse">
<stop stop-color="#C585F4"/>
<stop offset="0.463542" stop-color="#78C3F2"/>
<stop offset="1" stop-color="#536AD4"/>
</linearGradient>
<linearGradient id="paint14_linear_2_265" x1="631.986" y1="276.93" x2="465.986" y2="954.929" gradientUnits="userSpaceOnUse">
<stop stop-color="#C585F4"/>
<stop offset="0.463542" stop-color="#78C3F2"/>
<stop offset="1" stop-color="#536AD4"/>
</linearGradient>
<linearGradient id="paint15_linear_2_265" x1="634.981" y1="277.925" x2="468.981" y2="955.924" gradientUnits="userSpaceOnUse">
<stop stop-color="#C585F4"/>
<stop offset="0.463542" stop-color="#78C3F2"/>
<stop offset="1" stop-color="#536AD4"/>
</linearGradient>
<linearGradient id="paint16_linear_2_265" x1="638.976" y1="278.919" x2="472.976" y2="956.919" gradientUnits="userSpaceOnUse">
<stop stop-color="#C585F4"/>
<stop offset="0.463542" stop-color="#78C3F2"/>
<stop offset="1" stop-color="#536AD4"/>
</linearGradient>
<linearGradient id="paint17_linear_2_265" x1="897.39" y1="-135.953" x2="604.448" y2="1060.52" gradientUnits="userSpaceOnUse">
<stop stop-color="#C585F4"/>
<stop offset="0.463542" stop-color="#78C3F2"/>
<stop offset="1" stop-color="#536AD4"/>
</linearGradient>
<linearGradient id="paint18_linear_2_265" x1="644.966" y1="283.909" x2="478.966" y2="961.909" gradientUnits="userSpaceOnUse">
<stop stop-color="#C585F4"/>
<stop offset="0.463542" stop-color="#78C3F2"/>
<stop offset="1" stop-color="#536AD4"/>
</linearGradient>
<linearGradient id="paint19_linear_2_265" x1="650.96" y1="286.904" x2="484.96" y2="964.904" gradientUnits="userSpaceOnUse">
<stop stop-color="#C585F4"/>
<stop offset="0.463542" stop-color="#78C3F2"/>
<stop offset="1" stop-color="#536AD4"/>
</linearGradient>
<linearGradient id="paint20_linear_2_265" x1="650.956" y1="293.899" x2="484.956" y2="971.899" gradientUnits="userSpaceOnUse">
<stop stop-color="#C585F4"/>
<stop offset="0.463542" stop-color="#78C3F2"/>
<stop offset="1" stop-color="#536AD4"/>
</linearGradient>
<linearGradient id="paint21_linear_2_265" x1="632.555" y1="279.361" x2="466.555" y2="957.361" gradientUnits="userSpaceOnUse">
<stop stop-color="#C585F4"/>
<stop offset="0.463542" stop-color="#78C3F2"/>
<stop offset="1" stop-color="#536AD4"/>
</linearGradient>
<linearGradient id="paint22_linear_2_265" x1="635.55" y1="280.356" x2="469.55" y2="958.356" gradientUnits="userSpaceOnUse">
<stop stop-color="#C585F4"/>
<stop offset="0.463542" stop-color="#78C3F2"/>
<stop offset="1" stop-color="#536AD4"/>
</linearGradient>
<linearGradient id="paint23_linear_2_265" x1="826.728" y1="79.0714" x2="533.787" y2="1275.54" gradientUnits="userSpaceOnUse">
<stop stop-color="#C585F4"/>
<stop offset="0.463542" stop-color="#78C3F2"/>
<stop offset="1" stop-color="#536AD4"/>
</linearGradient>
<linearGradient id="paint24_linear_2_265" x1="605.814" y1="379.388" x2="490" y2="852.411" gradientUnits="userSpaceOnUse">
<stop stop-color="#C585F4"/>
<stop offset="0.463542" stop-color="#78C3F2"/>
<stop offset="1" stop-color="#536AD4"/>
</linearGradient>
<linearGradient id="paint25_linear_2_265" x1="685.895" y1="-63.5268" x2="392.954" y2="1132.94" gradientUnits="userSpaceOnUse">
<stop stop-color="#C585F4"/>
<stop offset="0.463542" stop-color="#78C3F2"/>
<stop offset="1" stop-color="#536AD4"/>
</linearGradient>
<linearGradient id="paint26_linear_2_265" x1="650.529" y1="289.336" x2="484.529" y2="967.336" gradientUnits="userSpaceOnUse">
<stop stop-color="#C585F4"/>
<stop offset="0.463542" stop-color="#78C3F2"/>
<stop offset="1" stop-color="#536AD4"/>
</linearGradient>
<linearGradient id="paint27_linear_2_265" x1="651.524" y1="296.331" x2="485.524" y2="974.331" gradientUnits="userSpaceOnUse">
<stop stop-color="#C585F4"/>
<stop offset="0.463542" stop-color="#78C3F2"/>
<stop offset="1" stop-color="#536AD4"/>
</linearGradient>
<linearGradient id="paint28_linear_2_265" x1="634.123" y1="272.792" x2="468.123" y2="950.792" gradientUnits="userSpaceOnUse">
<stop stop-color="#C585F4"/>
<stop offset="0.463542" stop-color="#78C3F2"/>
<stop offset="1" stop-color="#536AD4"/>
</linearGradient>
<linearGradient id="paint29_linear_2_265" x1="637.118" y1="273.787" x2="471.118" y2="951.787" gradientUnits="userSpaceOnUse">
<stop stop-color="#C585F4"/>
<stop offset="0.463542" stop-color="#78C3F2"/>
<stop offset="1" stop-color="#536AD4"/>
</linearGradient>
<linearGradient id="paint30_linear_2_265" x1="597.143" y1="324.268" x2="469.451" y2="845.806" gradientUnits="userSpaceOnUse">
<stop stop-color="#C585F4"/>
<stop offset="0.463542" stop-color="#78C3F2"/>
<stop offset="1" stop-color="#536AD4"/>
</linearGradient>
<linearGradient id="paint31_linear_2_265" x1="668.508" y1="217.61" x2="470.03" y2="1028.26" gradientUnits="userSpaceOnUse">
<stop stop-color="#C585F4"/>
<stop offset="0.463542" stop-color="#78C3F2"/>
<stop offset="1" stop-color="#536AD4"/>
</linearGradient>
<linearGradient id="paint32_linear_2_265" x1="649.159" y1="430.981" x2="543.202" y2="863.747" gradientUnits="userSpaceOnUse">
<stop stop-color="#C585F4"/>
<stop offset="0.463542" stop-color="#78C3F2"/>
<stop offset="1" stop-color="#536AD4"/>
</linearGradient>
<linearGradient id="paint33_linear_2_265" x1="715.194" y1="623.133" x2="660.925" y2="844.786" gradientUnits="userSpaceOnUse">
<stop stop-color="#C585F4"/>
<stop offset="0.463542" stop-color="#78C3F2"/>
<stop offset="1" stop-color="#536AD4"/>
</linearGradient>
<linearGradient id="paint34_linear_2_265" x1="653.093" y1="289.762" x2="487.093" y2="967.762" gradientUnits="userSpaceOnUse">
<stop stop-color="#C585F4"/>
<stop offset="0.463542" stop-color="#78C3F2"/>
<stop offset="1" stop-color="#536AD4"/>
</linearGradient>
<linearGradient id="paint35_linear_2_265" x1="633.692" y1="275.224" x2="467.692" y2="953.224" gradientUnits="userSpaceOnUse">
<stop stop-color="#C585F4"/>
<stop offset="0.463542" stop-color="#78C3F2"/>
<stop offset="1" stop-color="#536AD4"/>
</linearGradient>
<linearGradient id="paint36_linear_2_265" x1="812.635" y1="232.234" x2="519.694" y2="1428.7" gradientUnits="userSpaceOnUse">
<stop stop-color="#C585F4"/>
<stop offset="0.463542" stop-color="#78C3F2"/>
<stop offset="1" stop-color="#536AD4"/>
</linearGradient>
<linearGradient id="paint37_linear_2_265" x1="604.866" y1="316.032" x2="466.532" y2="881.032" gradientUnits="userSpaceOnUse">
<stop stop-color="#C585F4"/>
<stop offset="0.463542" stop-color="#78C3F2"/>
<stop offset="1" stop-color="#536AD4"/>
</linearGradient>
<linearGradient id="paint38_linear_2_265" x1="638.524" y1="215.779" x2="415.841" y2="1125.29" gradientUnits="userSpaceOnUse">
<stop stop-color="#C585F4"/>
<stop offset="0.463542" stop-color="#78C3F2"/>
<stop offset="1" stop-color="#536AD4"/>
</linearGradient>
<linearGradient id="paint39_linear_2_265" x1="659.105" y1="425.689" x2="555.355" y2="849.439" gradientUnits="userSpaceOnUse">
<stop stop-color="#C585F4"/>
<stop offset="0.463542" stop-color="#78C3F2"/>
<stop offset="1" stop-color="#536AD4"/>
</linearGradient>
<linearGradient id="paint40_linear_2_265" x1="698.726" y1="464.059" x2="594.976" y2="887.809" gradientUnits="userSpaceOnUse">
<stop stop-color="#C585F4"/>
<stop offset="0.463542" stop-color="#78C3F2"/>
<stop offset="1" stop-color="#536AD4"/>
</linearGradient>
<linearGradient id="paint41_linear_2_265" x1="652.662" y1="292.194" x2="486.662" y2="970.194" gradientUnits="userSpaceOnUse">
<stop stop-color="#C585F4"/>
<stop offset="0.463542" stop-color="#78C3F2"/>
<stop offset="1" stop-color="#536AD4"/>
</linearGradient>
<linearGradient id="paint42_linear_2_265" x1="555.944" y1="288.974" x2="417.611" y2="853.974" gradientUnits="userSpaceOnUse">
<stop stop-color="#C585F4"/>
<stop offset="0.463542" stop-color="#78C3F2"/>
<stop offset="1" stop-color="#536AD4"/>
</linearGradient>
<linearGradient id="paint43_linear_2_265" x1="542.949" y1="298.87" x2="441.317" y2="713.972" gradientUnits="userSpaceOnUse">
<stop stop-color="#C585F4"/>
<stop offset="0.463542" stop-color="#78C3F2"/>
<stop offset="1" stop-color="#536AD4"/>
</linearGradient>
<linearGradient id="paint44_linear_2_265" x1="593.825" y1="322.905" x2="446.567" y2="924.356" gradientUnits="userSpaceOnUse">
<stop stop-color="#C585F4"/>
<stop offset="0.463542" stop-color="#78C3F2"/>
<stop offset="1" stop-color="#536AD4"/>
</linearGradient>
<linearGradient id="paint45_linear_2_265" x1="622.103" y1="365.125" x2="505.051" y2="843.202" gradientUnits="userSpaceOnUse">
<stop stop-color="#C585F4"/>
<stop offset="0.463542" stop-color="#78C3F2"/>
<stop offset="1" stop-color="#536AD4"/>
</linearGradient>
<linearGradient id="paint46_linear_2_265" x1="653.405" y1="397.838" x2="536.354" y2="875.915" gradientUnits="userSpaceOnUse">
<stop stop-color="#C585F4"/>
<stop offset="0.463542" stop-color="#78C3F2"/>
<stop offset="1" stop-color="#536AD4"/>
</linearGradient>
<linearGradient id="paint47_linear_2_265" x1="752.115" y1="523.333" x2="679.941" y2="818.115" gradientUnits="userSpaceOnUse">
<stop stop-color="#C585F4"/>
<stop offset="0.463542" stop-color="#78C3F2"/>
<stop offset="1" stop-color="#536AD4"/>
</linearGradient>
<linearGradient id="paint48_linear_2_265" x1="786.414" y1="551.11" x2="703.414" y2="890.11" gradientUnits="userSpaceOnUse">
<stop stop-color="#C585F4"/>
<stop offset="0.463542" stop-color="#78C3F2"/>
<stop offset="1" stop-color="#536AD4"/>
</linearGradient>
<linearGradient id="paint49_linear_2_265" x1="565.329" y1="340.087" x2="399.329" y2="1018.09" gradientUnits="userSpaceOnUse">
<stop stop-color="#C585F4"/>
<stop offset="0.463542" stop-color="#78C3F2"/>
<stop offset="1" stop-color="#536AD4"/>
</linearGradient>
<linearGradient id="paint50_linear_2_265" x1="542.463" y1="279.61" x2="464.074" y2="599.776" gradientUnits="userSpaceOnUse">
<stop stop-color="#C585F4"/>
<stop offset="0.463542" stop-color="#78C3F2"/>
<stop offset="1" stop-color="#536AD4"/>
</linearGradient>
<linearGradient id="paint51_linear_2_265" x1="580.502" y1="341.312" x2="456.002" y2="849.812" gradientUnits="userSpaceOnUse">
<stop stop-color="#C585F4"/>
<stop offset="0.463542" stop-color="#78C3F2"/>
<stop offset="1" stop-color="#536AD4"/>
</linearGradient>
<linearGradient id="paint52_linear_2_265" x1="627.915" y1="377.843" x2="526.283" y2="792.945" gradientUnits="userSpaceOnUse">
<stop stop-color="#C585F4"/>
<stop offset="0.463542" stop-color="#78C3F2"/>
<stop offset="1" stop-color="#536AD4"/>
</linearGradient>
<linearGradient id="paint53_linear_2_265" x1="668.135" y1="421.123" x2="566.502" y2="836.225" gradientUnits="userSpaceOnUse">
<stop stop-color="#C585F4"/>
<stop offset="0.463542" stop-color="#78C3F2"/>
<stop offset="1" stop-color="#536AD4"/>
</linearGradient>
<linearGradient id="paint54_linear_2_265" x1="810.367" y1="537.28" x2="759.058" y2="746.843" gradientUnits="userSpaceOnUse">
<stop stop-color="#C585F4"/>
<stop offset="0.463542" stop-color="#78C3F2"/>
<stop offset="1" stop-color="#536AD4"/>
</linearGradient>
<linearGradient id="paint55_linear_2_265" x1="880.307" y1="606.911" x2="828.998" y2="816.475" gradientUnits="userSpaceOnUse">
<stop stop-color="#C585F4"/>
<stop offset="0.463542" stop-color="#78C3F2"/>
<stop offset="1" stop-color="#536AD4"/>
</linearGradient>
<linearGradient id="paint56_linear_2_265" x1="552.397" y1="353.518" x2="386.397" y2="1031.52" gradientUnits="userSpaceOnUse">
<stop stop-color="#C585F4"/>
<stop offset="0.463542" stop-color="#78C3F2"/>
<stop offset="1" stop-color="#536AD4"/>
</linearGradient>
<linearGradient id="paint57_linear_2_265" x1="551.393" y1="360.513" x2="385.393" y2="1038.51" gradientUnits="userSpaceOnUse">
<stop stop-color="#C585F4"/>
<stop offset="0.463542" stop-color="#78C3F2"/>
<stop offset="1" stop-color="#536AD4"/>
</linearGradient>
<linearGradient id="paint58_linear_2_265" x1="551.387" y1="367.508" x2="385.387" y2="1045.51" gradientUnits="userSpaceOnUse">
<stop stop-color="#C585F4"/>
<stop offset="0.463542" stop-color="#78C3F2"/>
<stop offset="1" stop-color="#536AD4"/>
</linearGradient>
<linearGradient id="paint59_linear_2_265" x1="555.382" y1="368.503" x2="389.382" y2="1046.5" gradientUnits="userSpaceOnUse">
<stop stop-color="#C585F4"/>
<stop offset="0.463542" stop-color="#78C3F2"/>
<stop offset="1" stop-color="#536AD4"/>
</linearGradient>
<linearGradient id="paint60_linear_2_265" x1="558.377" y1="374.498" x2="392.377" y2="1052.5" gradientUnits="userSpaceOnUse">
<stop stop-color="#C585F4"/>
<stop offset="0.463542" stop-color="#78C3F2"/>
<stop offset="1" stop-color="#536AD4"/>
</linearGradient>
<linearGradient id="paint61_linear_2_265" x1="557.372" y1="377.493" x2="391.372" y2="1055.49" gradientUnits="userSpaceOnUse">
<stop stop-color="#C585F4"/>
<stop offset="0.463542" stop-color="#78C3F2"/>
<stop offset="1" stop-color="#536AD4"/>
</linearGradient>
<linearGradient id="paint62_linear_2_265" x1="558.367" y1="383.488" x2="392.367" y2="1061.49" gradientUnits="userSpaceOnUse">
<stop stop-color="#C585F4"/>
<stop offset="0.463542" stop-color="#78C3F2"/>
<stop offset="1" stop-color="#536AD4"/>
</linearGradient>
<linearGradient id="paint63_linear_2_265" x1="546.895" y1="361.021" x2="380.895" y2="1039.02" gradientUnits="userSpaceOnUse">
<stop stop-color="#C585F4"/>
<stop offset="0.463542" stop-color="#78C3F2"/>
<stop offset="1" stop-color="#536AD4"/>
</linearGradient>
<linearGradient id="paint64_linear_2_265" x1="545.89" y1="368.016" x2="379.89" y2="1046.02" gradientUnits="userSpaceOnUse">
<stop stop-color="#C585F4"/>
<stop offset="0.463542" stop-color="#78C3F2"/>
<stop offset="1" stop-color="#536AD4"/>
</linearGradient>
<linearGradient id="paint65_linear_2_265" x1="545.885" y1="375.011" x2="379.885" y2="1053.01" gradientUnits="userSpaceOnUse">
<stop stop-color="#C585F4"/>
<stop offset="0.463542" stop-color="#78C3F2"/>
<stop offset="1" stop-color="#536AD4"/>
</linearGradient>
<linearGradient id="paint66_linear_2_265" x1="549.88" y1="376.006" x2="383.88" y2="1054.01" gradientUnits="userSpaceOnUse">
<stop stop-color="#C585F4"/>
<stop offset="0.463542" stop-color="#78C3F2"/>
<stop offset="1" stop-color="#536AD4"/>
</linearGradient>
<linearGradient id="paint67_linear_2_265" x1="552.875" y1="382.001" x2="386.875" y2="1060" gradientUnits="userSpaceOnUse">
<stop stop-color="#C585F4"/>
<stop offset="0.463542" stop-color="#78C3F2"/>
<stop offset="1" stop-color="#536AD4"/>
</linearGradient>
<linearGradient id="paint68_linear_2_265" x1="551.87" y1="384.996" x2="385.87" y2="1063" gradientUnits="userSpaceOnUse">
<stop stop-color="#C585F4"/>
<stop offset="0.463542" stop-color="#78C3F2"/>
<stop offset="1" stop-color="#536AD4"/>
</linearGradient>
<linearGradient id="paint69_linear_2_265" x1="552.865" y1="390.991" x2="386.865" y2="1068.99" gradientUnits="userSpaceOnUse">
<stop stop-color="#C585F4"/>
<stop offset="0.463542" stop-color="#78C3F2"/>
<stop offset="1" stop-color="#536AD4"/>
</linearGradient>
<clipPath id="clip0_2_265">
<rect width="1138" height="1125" fill="white"/>
</clipPath>
<clipPath id="clip1_2_265">
<rect width="730" height="877" fill="white" transform="translate(1137.32 615.133) rotate(135)"/>
</clipPath>
</defs>
</svg>
